<?xml version="1.0" encoding="utf-8"?>
<svg version="1.1" id="papersnake" xmlns="http://www.w3.org/2000/svg" xmlns:xlink="http://www.w3.org/1999/xlink" x="0px" y="0px"
	 viewBox="0 0 1200 1200" style="enable-background:new 0 0 1200 1200;" xml:space="preserve">
<style type="text/css">
	.st0{fill:#0BA2E0;}
	.st1{fill:#FFFFFF;}
	.st2{fill:url(#_x31_9_1_);}
	.st3{fill:url(#_x31_8_1_);}
	.st4{fill:url(#_x31_7_1_);}
	.st5{fill:url(#_x31_6_1_);}
	.st6{fill:url(#_x31_5_1_);}
	.st7{fill:url(#_x31_4_1_);}
	.st8{fill:url(#_x31_3_1_);}
	.st9{fill:url(#_x31_2_1_);}
	.st10{fill:url(#_x31_1_1_);}
	.st11{fill:url(#_x31_0_1_);}
	.st12{fill:url(#_x39__1_);}
	.st13{fill:url(#_x38__1_);}
	.st14{fill:url(#_x37__1_);}
	.st15{fill:url(#_x36__1_);}
	.st16{fill:url(#_x35__1_);}
	.st17{fill:url(#_x31__1_);}
</style>
<g id="blue">
	<rect x="1" class="st0" width="1200" height="1200"/>
</g>
<polygon id="_x32_0" class="st1" points="1059,460 1041,437 1082,449 1106,477 1138,476 1113,470 1089,441 1022,416 1046,388 
	949,270 881.7,270 865,319 810,351 820,494 743,620 720,569 554,569 498,633 442,540 361,551 307,617 287,537 199,549 144,618 
	62.5,524.5 112.5,658.5 150,668 219.7,598.3 255,682 310,699 389,618 431,712 555,731 628,671 675,734 796,735 912,596 897,395 
	997,446 1013,428 1050,467 1074,504 1113,512 1081,497 "/>
<linearGradient id="_x31_9_1_" gradientUnits="userSpaceOnUse" x1="40.3769" y1="549.0702" x2="134.6231" y2="633.9298">
	<stop  offset="0.4603" style="stop-color:#FFFFFF"/>
	<stop  offset="0.8626" style="stop-color:#EBEAEA"/>
	<stop  offset="1" style="stop-color:#C9C8C6"/>
</linearGradient>
<polygon id="_x31_9" class="st2" points="62.5,524.5 112.5,658.5 144,618 "/>
<linearGradient id="_x31_8_1_" gradientUnits="userSpaceOnUse" x1="111.7431" y1="657.5312" x2="218.5798" y2="574.061">
	<stop  offset="0.4603" style="stop-color:#FFFFFF"/>
	<stop  offset="0.7777" style="stop-color:#EBEAEA"/>
	<stop  offset="1" style="stop-color:#C9C8C6"/>
</linearGradient>
<polygon id="_x31_8" class="st3" points="199,549 144,618 112.5,658.5 150,668 220,598 "/>
<linearGradient id="_x31_7_1_" gradientUnits="userSpaceOnUse" x1="447.7321" y1="733.4161" x2="593.4865" y2="619.5404">
	<stop  offset="0.4603" style="stop-color:#FFFFFF"/>
	<stop  offset="0.8089" style="stop-color:#EBEAEA"/>
	<stop  offset="1" style="stop-color:#C9C8C6"/>
</linearGradient>
<polyline id="_x31_7" class="st4" points="498,633 431,712 555,731 628,671 554,569 "/>
<linearGradient id="_x31_6_1_" gradientUnits="userSpaceOnUse" x1="577.2261" y1="543.2048" x2="726.0981" y2="677.2499">
	<stop  offset="0.4961" style="stop-color:#FFFFFF"/>
	<stop  offset="0.6799" style="stop-color:#FDFDFD"/>
	<stop  offset="0.8894" style="stop-color:#EBEAEA"/>
	<stop  offset="1" style="stop-color:#C9C8C6"/>
</linearGradient>
<polygon id="_x31_6" class="st5" points="554,569 628,671 675,734 743,620 720,569 "/>
<linearGradient id="_x31_5_1_" gradientUnits="userSpaceOnUse" x1="684.1072" y1="742.7947" x2="874.0039" y2="546.1509">
	<stop  offset="0.4961" style="stop-color:#FFFFFF"/>
	<stop  offset="0.6799" style="stop-color:#FDFDFD"/>
	<stop  offset="0.8894" style="stop-color:#EBEAEA"/>
	<stop  offset="1" style="stop-color:#C9C8C6"/>
</linearGradient>
<polygon id="_x31_5" class="st6" points="820,494 743,620 675,734 796,735 912,596 "/>
<linearGradient id="_x31_4_1_" gradientUnits="userSpaceOnUse" x1="829.8682" y1="569.3138" x2="892.1318" y2="377.6862">
	<stop  offset="0.4961" style="stop-color:#FFFFFF"/>
	<stop  offset="0.6799" style="stop-color:#FDFDFD"/>
	<stop  offset="0.8402" style="stop-color:#EBEAEA"/>
	<stop  offset="1" style="stop-color:#C9C8C6"/>
</linearGradient>
<polygon id="_x31_4" class="st7" points="810,351 820,494 912,596 897,395 "/>
<linearGradient id="_x31_3_1_" gradientUnits="userSpaceOnUse" x1="1080.0161" y1="499.2997" x2="1052.9686" y2="464.6807">
	<stop  offset="0.4961" style="stop-color:#FFFFFF"/>
	<stop  offset="0.6799" style="stop-color:#FDFDFD"/>
	<stop  offset="0.9341" style="stop-color:#EBEAEA"/>
	<stop  offset="1" style="stop-color:#C9C8C6"/>
</linearGradient>
<polyline id="_x31_3" class="st8" points="1050,467 1059,460 1081,497 1074,504 "/>
<linearGradient id="_x31_2_1_" gradientUnits="userSpaceOnUse" x1="1109.2119" y1="474.4906" x2="1085.303" y2="443.8884">
	<stop  offset="0.4961" style="stop-color:#FFFFFF"/>
	<stop  offset="0.6799" style="stop-color:#FDFDFD"/>
	<stop  offset="0.8939" style="stop-color:#EBEAEA"/>
	<stop  offset="1" style="stop-color:#C9C8C6"/>
</linearGradient>
<polyline id="_x31_2" class="st9" points="1113,470 1106,477 1082,449 1089,441 "/>
<linearGradient id="_x31_1_1_" gradientUnits="userSpaceOnUse" x1="1128.915" y1="484.18" x2="1114.7382" y2="468.4349">
	<stop  offset="0.4961" style="stop-color:#FFFFFF"/>
	<stop  offset="0.6799" style="stop-color:#FDFDFD"/>
	<stop  offset="0.8402" style="stop-color:#EBEAEA"/>
	<stop  offset="1" style="stop-color:#C9C8C6"/>
</linearGradient>
<polyline id="_x31_1" class="st10" points="1113,470 1106,477 1138,476 "/>
<linearGradient id="_x31_0_1_" gradientUnits="userSpaceOnUse" x1="1104.2198" y1="519.9056" x2="1082.4335" y2="495.7093">
	<stop  offset="0.4961" style="stop-color:#FFFFFF"/>
	<stop  offset="0.6799" style="stop-color:#FDFDFD"/>
	<stop  offset="0.876" style="stop-color:#EBEAEA"/>
	<stop  offset="1" style="stop-color:#C9C8C6"/>
</linearGradient>
<polyline id="_x31_0" class="st11" points="1081,497 1074,504 1113,512 "/>
<linearGradient id="_x39__1_" gradientUnits="userSpaceOnUse" x1="889.4647" y1="265.3164" x2="907.325" y2="295.0409">
	<stop  offset="0.2413" style="stop-color:#FDFEFE"/>
	<stop  offset="0.7419" style="stop-color:#EEEEED"/>
	<stop  offset="0.8744" style="stop-color:#ECECEB"/>
	<stop  offset="0.9323" style="stop-color:#E5E5E4"/>
	<stop  offset="0.9756" style="stop-color:#D9D8D7"/>
	<stop  offset="1" style="stop-color:#CECDCC"/>
</linearGradient>
<polyline id="_x39_" class="st12" points="881.7,270 865,319 949,270 "/>
<linearGradient id="_x38__1_" gradientUnits="userSpaceOnUse" x1="197.9262" y1="550.326" x2="296.7946" y2="630.388">
	<stop  offset="0.4603" style="stop-color:#FFFFFF"/>
	<stop  offset="0.7777" style="stop-color:#EBEAEA"/>
	<stop  offset="1" style="stop-color:#C9C8C6"/>
</linearGradient>
<polyline id="_x38_" class="st13" points="199,549 255,682 307,617 287,537 "/>
<linearGradient id="_x37__1_" gradientUnits="userSpaceOnUse" x1="361" y1="551" x2="361" y2="551">
	<stop  offset="0.4603" style="stop-color:#FFFFFF"/>
	<stop  offset="0.7777" style="stop-color:#EBEAEA"/>
	<stop  offset="1" style="stop-color:#C9C8C6"/>
</linearGradient>
<path id="_x37_" class="st14" d="M361,551"/>
<linearGradient id="_x36__1_" gradientUnits="userSpaceOnUse" x1="246.0973" y1="657.5399" x2="384.9915" y2="606.9866">
	<stop  offset="0.4603" style="stop-color:#FFFFFF"/>
	<stop  offset="0.7777" style="stop-color:#EBEAEA"/>
	<stop  offset="1" style="stop-color:#C9C8C6"/>
</linearGradient>
<polyline id="_x36_" class="st15" points="389,618 310,699 255,682 307,617 361,551 "/>
<linearGradient id="_x35__1_" gradientUnits="userSpaceOnUse" x1="366.8687" y1="545.8984" x2="476.7143" y2="672.2612">
	<stop  offset="0.4603" style="stop-color:#FFFFFF"/>
	<stop  offset="0.8089" style="stop-color:#EBEAEA"/>
	<stop  offset="1" style="stop-color:#C9C8C6"/>
</linearGradient>
<polyline id="_x35_" class="st16" points="361,551 442,540 498,633 431,712 389,618 "/>
<path id="_x34_" class="st1" d="M865,319"/>
<path id="_x33_" class="st1" d="M1046,388"/>
<polyline id="_x32_" class="st1" points="1046,388 1022,416 1013,428 997,446 897,395 810,351 865,319 949,270 "/>
<linearGradient id="_x31__1_" gradientUnits="userSpaceOnUse" x1="1070.9482" y1="458.2735" x2="1029.9084" y2="409.364">
	<stop  offset="0.4961" style="stop-color:#FFFFFF"/>
	<stop  offset="0.6799" style="stop-color:#FDFDFD"/>
	<stop  offset="0.8402" style="stop-color:#EBEAEA"/>
	<stop  offset="1" style="stop-color:#C9C8C6"/>
</linearGradient>
<polygon id="_x31_" class="st17" points="1013,428 1022,416 1089,441 1082,449 1041,437 1059,460 1050,467 "/>
</svg>
