<?xml version="1.0" standalone="no"?>
<!DOCTYPE svg PUBLIC "-//W3C//DTD SVG 20010904//EN"
 "http://www.w3.org/TR/2001/REC-SVG-20010904/DTD/svg10.dtd">
<svg version="1.0" xmlns="http://www.w3.org/2000/svg"
 width="700.000000pt" height="700.000000pt" viewBox="0 0 700.000000 700.000000"
 preserveAspectRatio="xMidYMid meet">
<metadata>
Created by potrace 1.14, written by Peter Selinger 2001-2017
</metadata>
<g transform="translate(0.000000,700.000000) scale(0.100000,-0.100000)"
fill="#000000" stroke="none">
<path d="M0 3500 l0 -3500 3500 0 3500 0 0 3500 0 3500 -3500 0 -3500 0 0
-3500z m5525 1924 c16 -5 562 -656 573 -683 1 -4 -29 -44 -68 -89 -38 -46 -70
-84 -70 -86 0 -1 8 -2 18 -3 10 -1 97 -30 193 -66 l174 -64 72 -84 c40 -46 83
-87 95 -91 13 -4 46 -14 73 -22 l50 -14 -95 0 -95 -1 -43 52 c-89 108 -83 104
-207 141 -98 29 -114 32 -103 17 77 -105 127 -179 166 -247 47 -81 48 -82 132
-123 74 -36 80 -40 45 -35 -22 3 -70 12 -106 20 l-66 15 -81 122 c-51 76 -117
159 -177 220 l-95 98 -48 -52 -48 -52 -285 147 c-157 80 -289 146 -292 146 -3
0 -4 -15 -1 -32 2 -18 22 -279 45 -580 35 -476 38 -550 26 -568 -8 -11 -160
-195 -338 -410 l-324 -389 -170 -1 c-93 0 -254 3 -357 7 l-186 6 16 26 16 26
-21 -18 c-21 -18 -22 -18 -149 152 -71 94 -131 171 -134 171 -3 0 -97 -77
-210 -170 -113 -93 -214 -170 -225 -170 -24 0 -684 99 -704 106 -11 3 -7 13
15 37 68 75 78 91 29 47 -27 -24 -53 -48 -56 -52 -4 -7 -85 165 -216 462 l-25
54 -231 -237 -232 -237 -150 48 c-174 55 -182 59 -161 75 8 7 77 89 153 184
282 350 446 543 456 536 6 -3 7 -1 3 6 -4 6 -1 13 6 16 32 12 462 65 469 58 4
-4 78 -125 164 -268 86 -143 158 -261 159 -262 2 -2 71 76 155 172 l153 174
23 -33 c32 -47 314 -408 333 -426 14 -13 15 -13 5 0 -6 8 -82 114 -170 235
-87 121 -162 226 -167 233 -6 9 93 12 479 12 l486 0 37 -82 c20 -46 51 -111
67 -147 l30 -63 55 88 c29 49 127 209 217 355 l163 266 111 -111 111 -111
-106 120 c-60 68 -106 128 -106 140 0 11 -11 178 -25 370 -14 193 -25 364 -25
382 l0 32 57 -20 c31 -10 58 -18 60 -16 1 2 -24 16 -57 32 -33 16 -60 32 -60
36 0 3 71 48 158 98 l158 91 38 118 c21 64 45 129 53 145 l14 27 177 0 c97 0
186 -3 197 -6z m-4910 -1769 c119 -137 220 -251 223 -252 4 -1 78 88 166 198
87 109 161 199 165 199 3 0 118 15 256 34 137 19 250 34 251 33 1 -1 25 -99
53 -217 29 -118 54 -221 56 -228 3 -7 1 -11 -3 -8 -4 2 -75 -78 -157 -180
l-149 -184 -93 218 c-51 119 -95 222 -97 227 -2 6 -95 -81 -207 -192 l-204
-202 -109 29 c-60 16 -110 31 -111 32 -4 6 -285 759 -285 766 0 9 6 2 245
-273z"/>
<path d="M2110 3747 c0 -3 29 -85 65 -183 36 -98 65 -180 65 -183 0 -3 5 0 11
6 9 9 -7 56 -61 185 -68 163 -80 190 -80 175z"/>
<path d="M3580 3176 c0 -2 8 -10 18 -17 15 -13 16 -12 3 4 -13 16 -21 21 -21
13z"/>
<path d="M1150 3773 c0 -5 9 -19 20 -33 l20 -25 -12 33 c-11 28 -28 44 -28 25z"/>
<path d="M699 3233 c-29 -35 -41 -53 -36 -53 2 0 17 16 31 35 28 36 31 49 5
18z"/>
</g>
</svg>
